<svg xmlns="http://www.w3.org/2000/svg" width="1em" height="1em" viewBox="0 0 18 18">
  <path d="M15.6,5.75v.4A9.51,9.51,0,0,1,6,15.75a9.31,9.31,0,0,1-5.2-1.5h.8a6.64,6.64,0,0,0,4.2-1.4,3.42,3.42,0,0,1-3.2-2.4,1.27,1.27,0,0,0,.6.1,2.77,2.77,0,0,0,.9-.1A3.54,3.54,0,0,1,1.4,7h0a2.6,2.6,0,0,0,1.5.4,3.46,3.46,0,0,1-1.5-2.8,3.37,3.37,0,0,1,.5-1.7,9.38,9.38,0,0,0,7,3.5,2,2,0,0,1-.1-.8,3.37,3.37,0,0,1,3.4-3.4,3.31,3.31,0,0,1,2.4,1,5.84,5.84,0,0,0,2.2-.8,4,4,0,0,1-1.5,1.9,10.55,10.55,0,0,0,1.9-.5A5.07,5.07,0,0,1,15.6,5.75Z"/>
</svg>
